<svg width="3392" height="286" viewBox="0 0 3392 286" fill="none" xmlns="http://www.w3.org/2000/svg">
<path d="M1481.75 237C1456.75 237 1438.17 231.333 1426 220C1413.83 208.5 1407.75 191.833 1407.75 170C1407.75 166.167 1407.92 162.083 1408.25 157.75C1408.75 153.417 1409.42 148.917 1410.25 144.25C1413.58 126.083 1419.58 110.75 1428.25 98.25C1437.08 85.5833 1448.33 76 1462 69.5C1475.83 62.8333 1491.83 59.5 1510 59.5C1521.17 59.5 1531 60.5 1539.5 62.5C1548 64.5 1555.08 67.5 1560.75 71.5C1566.58 75.3333 1570.92 80.25 1573.75 86.25C1576.75 92.0833 1578.25 99 1578.25 107C1578.25 109.167 1578.08 111.417 1577.75 113.75C1577.58 116.083 1577.33 118.5 1577 121H1563.25C1563.58 119.167 1563.92 117.167 1564.25 115C1564.58 112.833 1564.75 110.917 1564.75 109.25C1564.75 102.083 1563.42 96.0833 1560.75 91.25C1558.08 86.4167 1554.33 82.5833 1549.5 79.75C1544.67 76.75 1538.83 74.6667 1532 73.5C1525.33 72.1667 1518 71.5 1510 71.5C1499.67 71.5 1489.75 72.8333 1480.25 75.5C1470.92 78.1667 1462.42 82.5 1454.75 88.5C1447.08 94.3333 1440.58 102 1435.25 111.5C1430.08 120.833 1426.42 132.25 1424.25 145.75C1423.75 148.917 1423.33 151.833 1423 154.5C1422.67 157 1422.42 159.333 1422.25 161.5C1422.08 163.5 1422 165.417 1422 167.25C1422 168.917 1422 170.583 1422 172.25C1422 184.917 1424.33 195.167 1429 203C1433.83 210.667 1440.67 216.25 1449.5 219.75C1458.33 223.25 1468.75 225 1480.75 225C1497.08 225 1510.25 222.667 1520.25 218C1530.42 213.333 1538.25 206.583 1543.75 197.75C1549.42 188.917 1553.33 178.417 1555.5 166.25L1557 158H1489.75L1491.75 146H1572.75L1557.25 234H1547.75V209.25C1542.75 215.917 1536.58 221.333 1529.25 225.5C1521.92 229.5 1514.08 232.417 1505.75 234.25C1497.58 236.083 1489.58 237 1481.75 237ZM1604.46 234L1634.71 62.5H1648.21L1617.96 234H1604.46ZM1666.96 234L1697.21 62.5H1784.71C1794.55 62.5 1802.55 64.0833 1808.71 67.25C1815.05 70.25 1819.71 74.5 1822.71 80C1825.88 85.5 1827.46 91.75 1827.46 98.75C1827.46 110.583 1825.38 120.5 1821.21 128.5C1817.05 136.5 1811.8 142.833 1805.46 147.5C1799.13 152.167 1792.55 155.583 1785.71 157.75L1810.46 234H1795.96L1771.96 160.25H1693.46L1680.46 234H1666.96ZM1695.71 148.25H1767.71C1775.71 148.25 1783.21 146.333 1790.21 142.5C1797.21 138.667 1802.88 133.25 1807.21 126.25C1811.55 119.083 1813.71 110.5 1813.71 100.5C1813.71 92.3333 1811.21 86 1806.21 81.5C1801.21 76.8333 1793.55 74.5 1783.21 74.5H1708.71L1695.71 148.25ZM1851.53 234L1881.53 62.5H1895.03L1867.03 222H1951.53L1949.53 234H1851.53ZM2072.98 234L2100.98 74.5H2037.48L2039.48 62.5H2180.73L2178.73 74.5H2114.48L2086.48 234H2072.98ZM2137.73 234L2234.23 62.5H2251.23L2287.48 234H2273.73L2263.48 183.25H2180.48L2152.23 234H2137.73ZM2187.23 171.25H2260.98L2248.23 108.5C2247.9 106.667 2247.4 104.417 2246.73 101.75C2246.23 99.0833 2245.65 96.25 2244.98 93.25C2244.32 90.0833 2243.65 87 2242.98 84C2242.48 80.8333 2241.98 78 2241.48 75.5H2239.98C2238.32 78.8333 2236.32 82.6667 2233.98 87C2231.65 91.1667 2229.4 95.25 2227.23 99.25C2225.23 103.083 2223.57 106.167 2222.23 108.5L2187.23 171.25ZM2318.08 234L2348.08 62.5H2361.58L2333.58 222H2418.08L2416.08 234H2318.08ZM2442.6 234L2472.6 62.5H2486.1L2468.1 165L2585.85 62.5H2604.1L2527.85 129L2577.6 234H2563.1L2517.35 138L2464.85 183.5L2456.1 234H2442.6Z" fill="#273AAA"/>
<path d="M5 5C5 54.66 16.3884 95.691 33.5934 142.388C46.1257 176.403 90.6275 204.254 120.585 220.896C153.279 239.059 207.057 247.703 244.894 252.638C304.7 260.439 367.452 274.576 427.843 264.511C466.617 258.049 495.521 250.844 531.797 236.161C594.623 210.733 651.207 176.943 711.596 146.75C786.011 109.544 882.647 103.072 964.817 109.919C1024.24 114.871 1072.82 138.585 1126.93 158.623C1146.76 165.969 1163.09 175.92 1184.84 181.642C1201.62 186.059 1220.5 194.021 1235 201.269" stroke="#273AAA" stroke-width="10" stroke-linecap="round"/>
<path d="M2826 210.39C2837.64 211.622 2843.91 225.671 2856.68 227.103C2864.33 227.961 2881.84 234.312 2889.31 237.549C2914.72 248.563 2939.72 247.995 2967.22 247.995C3019 247.995 3064.24 217.485 3106.5 191.587C3129.92 177.234 3147.43 161.927 3167.86 143.536C3181.89 130.905 3192.41 121.765 3210.71 114.287C3223.17 109.196 3236.97 104.956 3249.18 99.6627C3270 90.6435 3302.7 93.3951 3325.64 93.3951C3352.21 93.3951 3365.21 103.9 3387 114.287" stroke="#273AAA" stroke-width="10" stroke-linecap="round"/>
</svg>
