<svg width="1208" height="1729" viewBox="0 0 1208 1729" fill="none" xmlns="http://www.w3.org/2000/svg">
<path d="M1202.68 1724C1202.68 1690.06 1204.98 1655.41 1197.3 1622.76C1193.96 1608.52 1191.29 1590.51 1190.58 1575.67C1189.68 1556.79 1188.97 1526.75 1180 1510.59C1169.38 1491.46 1176.88 1463.59 1167.9 1443.83C1160.91 1428.41 1154.05 1408.9 1151.1 1392.7C1148.22 1376.8 1131.89 1357.98 1124.06 1344.27C1115.77 1329.74 1095.59 1314.27 1081.72 1305.59C1067.54 1296.72 1057.78 1281.33 1041.07 1272.96C1026.66 1265.75 1010.59 1261.76 995.879 1254.97C984.47 1249.7 975.079 1242.84 963.12 1238.99C943.766 1232.76 922.395 1232.74 902.643 1226.88C879.44 1220 850.216 1212.42 826.206 1212.42C821.943 1212.42 821.051 1211.05 818.479 1208.05C815.31 1204.35 805.532 1206.53 801.176 1206.37C793.132 1206.07 784.957 1200.46 777.825 1197.29C764.327 1191.28 752.74 1182.43 738.514 1176.1C729.946 1172.28 721.356 1161.36 716.507 1153.9C712.733 1148.08 702.396 1143.23 696.348 1139.77C687.109 1134.49 665.832 1117.7 664.43 1106.47C661.967 1086.75 639.273 1066.54 637.215 1045.93C635.159 1025.35 622.497 1006.61 622.095 985.726C621.528 956.177 624.986 925.938 631.167 896.931C636.746 870.752 637.215 847.357 637.215 820.413C637.215 799.969 646.286 774.817 646.286 753.817C646.286 738.659 652.334 724.132 652.334 708.578C652.334 699.698 653.213 692.079 656.87 684.025C664.161 667.969 668.947 646.297 673.501 629.201C678.353 610.988 676.497 591.958 681.901 574.377C689.206 550.61 701.982 495 663.758 495C627.571 495 623.766 568.449 618.904 590.353C613.102 616.49 610 644.055 610 672.085C610 693.922 640.991 708.418 652.334 685.707" stroke="#1D1D1B" stroke-width="10" stroke-linecap="round"/>
<path d="M644 855.488C652.084 855.914 661.522 858.956 668.907 862.322C677.821 866.384 692.731 867.637 702.734 867.637C717.721 867.637 733.026 872.793 748.341 870.336C775.306 866.011 813.638 846.7 813.638 815.244C813.638 804.435 816.667 791.449 816.667 780.991C816.667 763.088 824.242 748.491 829.121 730.961C834.789 710.595 846.96 692.48 846.96 670.722C846.96 656.641 853.018 643.414 853.018 629.213C853.018 621.898 852.075 613.647 853.102 606.434C855.436 590.056 852.982 575.345 848.474 559.526C843.789 543.085 831.814 528.439 831.814 510.677C831.814 503.543 830.817 495.508 832.15 488.488C833.384 481.995 832.147 474.543 834.085 468.324C839.952 449.502 849.989 429.104 849.989 409.014C849.989 372.146 833.332 337.938 825.166 302.457C820.47 282.052 820.999 259.634 814.395 239.772C810.563 228.246 809.874 214.675 804.55 204" stroke="#1D1D1B" stroke-width="10" stroke-linecap="round"/>
<path d="M644.901 689C644.901 681.855 639.827 675.693 637.873 668.822C635.126 659.16 631 650.541 631 640.108C631 628.888 633.802 618.615 635.093 607.59C636.064 599.295 639.813 591.129 640.73 582.834C641.528 575.625 645.865 567.919 647.758 561.259C649.531 555.023 654.436 542.213 659.11 537.046C668.217 526.979 677.742 509.936 690.155 503.132C699.579 497.966 704.21 489.706 711.624 482.255C721.791 472.039 732.66 462.358 742.746 452.222C752.787 442.131 756.519 425.957 765.528 414.893C769.549 409.954 769.375 402.178 772.787 396.733C776.823 390.291 778.315 383.133 781.823 376.788C783.663 373.459 785.098 367.914 785.993 364.138C787.781 356.589 790.651 347.467 790.858 339.769C791.177 327.89 790.858 315.955 790.858 304.07C790.858 288.284 789.535 274.721 785.607 259.369C783.69 251.879 781.128 242.993 781.128 235" stroke="#1D1D1B" stroke-width="10" stroke-linecap="round"/>
<path d="M779 232C779 236.177 777.508 250.237 774.104 252.956C772.368 254.344 772.006 261.908 772.006 264.133C772.006 269.253 769.582 276.217 767.499 280.898C763.314 290.303 761.566 301.271 758.019 311.014C754.094 321.795 749.032 332.243 743.721 342.371C737.5 354.232 731.963 367.176 725.149 378.695C721.714 384.501 719.6 390.796 716.057 396.547C710.93 404.868 703.638 411.127 697.873 418.9C692.078 426.715 682.436 432.948 678.291 442.263C673.158 453.8 660.691 463.582 652.648 473.077C632.338 497.051 613.015 522.132 590.482 544.639C583.362 551.75 576.178 559.424 567.869 565.13C562.815 568.6 556.834 570.043 551.706 573.59C545.983 577.547 536.295 581.323 529.714 583.758C521.078 586.953 513.443 592.139 505.004 596.021C490.635 602.63 478.005 613.028 462.886 618.219C454.946 620.946 447.088 625.453 438.952 627.378C430.073 629.478 421.37 629.918 412.842 632.656C407.171 634.477 400.672 634.298 395.047 636.459C389.592 638.555 383.224 636.286 377.563 637.856C362.083 642.151 351.253 632.966 337 632.966" stroke="#1D1D1B" stroke-width="10" stroke-linecap="round"/>
<path d="M765 154.458C756.005 154.458 747.934 150.265 739.062 150.265C722.897 150.265 705.935 148.802 690.138 152.75C684.511 154.156 677.917 157.028 672.743 159.737C665.53 163.515 656.094 166.742 649.757 171.926C644.841 175.947 639.635 177.214 635.157 182.33C624.906 194.042 619.373 209.521 611.239 222.624C599.412 241.674 595.573 264.487 583.981 283.803C575.288 298.287 568.535 313.355 558.121 326.659C550.959 335.808 545.153 344.747 536.377 352.59C524.886 362.86 518.839 376.944 510.672 389.701C502.398 402.627 492.596 415.098 479.998 424.095C470.811 430.655 463.206 441.622 453.284 446.843C440.073 453.794 427.281 462.132 413.678 468.115C406.121 471.44 398.716 474.737 391.158 477.975C377.266 483.927 366.916 493.968 351.863 497.928C329.892 503.709 305.132 516.12 286.942 529.76C267.843 544.08 245.544 555.216 222.641 562.213C213.253 565.081 203.31 571.679 193.287 572.306C186.94 572.702 205.799 575.101 212.158 575.101C231.413 575.101 251.783 583.69 268.77 592.181C276.206 595.898 286.133 603.202 292.533 608.64C298.527 613.734 305.736 616.681 312.802 619.82C320.044 623.038 329.497 626.755 335.866 631" stroke="#1D1D1B" stroke-width="10" stroke-linecap="round"/>
<path d="M767 149.358C761.487 149.358 753.133 140.296 750.563 135.384C743.472 121.83 731.602 107.281 718.231 99.7501C705.529 92.5957 693.587 85.8659 680.473 79.4877C665.116 72.0193 652.464 60.5441 637.131 53.6356C625.572 48.4273 612.45 45.728 601.543 39.7392C595.261 36.2897 585.89 30.5784 578.671 30.5784C564.699 30.5784 550.28 28.556 536.725 24.6782C528.579 22.3478 520.558 19.1027 512.07 16.9148C499.643 13.7117 486.952 6.82244 474.001 6.82244C454.267 6.82244 435.021 5.42503 415.308 5.42503C394.53 5.42503 374.958 3.7223 354.211 7.13297C340.767 9.34316 327.953 15.5356 314.824 19.0886C301.111 22.7997 288.555 28.2362 275.67 34.1495C266.244 38.4751 255.759 46.2957 247.68 52.6264C237.366 60.709 224.515 65.1579 214.186 73.4323C202.732 82.6071 194.03 91.4681 185.033 102.933C180.499 108.711 176.253 114.625 172.007 120.634C167.314 127.276 160.576 132.075 155.958 138.722C142.001 158.812 134.081 181.273 124.867 203.702C119.901 215.79 115.461 226.018 115.253 238.948C114.879 262.156 107.203 285.68 103.39 308.585C98.4806 338.08 104.749 369.312 105.483 398.718C106.054 421.581 104.516 444.847 114.632 466.027C121.012 479.383 126.658 491.463 134.791 503.679C141.268 513.407 151.964 524.247 161.385 530.851C169.077 536.242 180.069 542.566 189.452 543.505C193.947 543.955 200.332 544.028 192.476 545.601C185.337 547.031 178.971 547.62 171.697 547.62C147.465 547.62 126.565 547.971 102.847 555.228C93.5993 558.057 84.8516 561.924 75.7881 565.165C69.3971 567.45 61.4167 569.048 56.0171 573.472C51.5786 577.108 47.8477 581.471 43.3016 585.039C34.8182 591.697 27.4685 599.79 20.3516 607.708C13.1617 615.707 12.1699 627.472 8.8766 637.364C4.90997 649.28 6.39553 663.389 6.39553 675.948C6.39553 689.557 4.99996 703.127 4.99996 716.784C4.99996 729.515 13.9943 738.148 18.6459 749.157C19.8893 752.1 25.1529 762.679 27.9499 756.299C31.2027 748.881 36.0614 741.552 40.5878 734.873C46.423 726.262 52.4498 724.237 61.3669 719.579C70.2364 714.945 76.2931 716.305 85.945 715.231C93.1903 714.425 100.625 711.427 107.654 709.797C115.424 707.995 123.789 707.362 131.38 704.828C138.747 702.369 149.143 704.13 156.811 704.13C174.434 704.13 191.839 705.326 209.301 706.847C233.635 708.965 254.95 698.852 278.849 697.142C298.333 695.749 317.632 688.758 337.154 688.758C343.752 688.758 349.852 687.361 355.994 687.361C361.339 687.361 359.483 693.16 359.483 697.453C359.483 711.676 354.444 723.393 345.527 734.873C340.349 741.539 334.519 747.126 329.013 753.427C323.787 759.407 316.89 765.175 309.94 769.109C307.731 770.359 303.269 771.987 302.264 774" stroke="#1D1D1B" stroke-width="10" stroke-linecap="round"/>
<path d="M384.702 643C384.702 653.509 397.802 661.004 401.444 670.588C409.55 691.924 414 710.561 414 733.847C414 750.864 408.145 768.323 402.839 784.283C393.415 812.632 376.36 835.665 352.304 852.982C347.34 856.556 338.163 866.311 331.378 866.815C324.767 867.306 316.204 871.072 310.063 873.809C293.615 881.139 274.239 885 256.196 885C231.273 885 207.917 876.843 184.657 869.069C175.146 865.89 168.833 859.074 160.862 853.137C152.37 846.812 142.675 840.872 134.897 833.631C125.007 824.423 119.152 811.475 107.77 803.867C99.6035 798.408 92.4306 792.885 83.3554 788.791C75.6836 785.329 61.0334 785.358 61.0334 795.474C61.0334 799.54 60.4694 801.888 63.9786 804.489C73.7454 811.727 89.2586 815.995 100.872 819.876C112.809 823.866 126.733 823.451 139.16 823.451C148.585 823.451 158.512 824.426 167.683 821.974C199.081 813.579 231.85 807.086 261.931 794.386C272.902 789.754 283.59 787.606 294.019 781.796C297.359 779.936 305.087 774.678 306.575 771.694" stroke="#1D1D1B" stroke-width="10" stroke-linecap="round"/>
<path d="M835 473C835.207 474.652 844.007 478.41 845.334 478.817C849.44 480.078 853.093 482.727 857.14 484.222C860.736 485.552 863.399 486.22 867.238 486.22C869.934 486.22 872.355 485.787 874.863 485.045C877.063 484.394 878.65 483.398 880.781 482.548C881.792 482.144 879.006 483.914 878.484 484.869C877.764 486.187 876.463 486.953 875.393 487.924C871.286 491.65 866.435 494.104 861.732 497.09C858.266 499.291 851.255 500.183 847.189 499.969C843.161 499.758 838.894 497.378 835 496.268" stroke="#1D1D1B" stroke-width="10" stroke-linecap="round"/>
</svg>
